<?xml version="1.0"?>
<svg xmlns="http://www.w3.org/2000/svg" height="512px" viewBox="0 0 512 512" width="512px" class=""><g><path d="m65.136719 31.304688c-13.085938 0-23.734375 10.648437-23.734375 23.734374 0 13.085938 10.648437 23.730469 23.734375 23.730469 13.085937 0 23.730469-10.648437 23.730469-23.734375 0-13.085937-10.644532-23.730468-23.730469-23.730468zm0 32.316406c-4.734375 0-8.585938-3.851563-8.585938-8.585938 0-4.730468 3.851563-8.582031 8.585938-8.582031 4.730469 0 8.582031 3.851563 8.582031 8.582031 0 4.734375-3.851562 8.585938-8.582031 8.585938zm0 0" data-original="#000000" class="active-path" data-old_color="#000000" fill="#224f88"/><path d="m128.757812 31.304688c-13.085937 0-23.734374 10.648437-23.734374 23.734374 0 13.085938 10.648437 23.730469 23.734374 23.730469 13.085938 0 23.730469-10.644531 23.730469-23.730469 0-13.085937-10.644531-23.734374-23.730469-23.734374zm0 32.316406c-4.734374 0-8.585937-3.851563-8.585937-8.585938 0-4.730468 3.851563-8.582031 8.585937-8.582031 4.730469 0 8.582032 3.851563 8.582032 8.582031 0 4.734375-3.851563 8.585938-8.582032 8.585938zm0 0" data-original="#000000" class="active-path" data-old_color="#000000" fill="#224f88"/><path d="m192.378906 31.304688c-13.085937 0-23.730468 10.648437-23.730468 23.734374 0 13.085938 10.644531 23.730469 23.730468 23.730469 13.085938 0 23.730469-10.644531 23.730469-23.730469 0-13.085937-10.644531-23.734374-23.730469-23.734374zm0 32.316406c-4.734375 0-8.582031-3.851563-8.582031-8.585938 0-4.730468 3.847656-8.582031 8.582031-8.582031s8.585938 3.851563 8.585938 8.582031c0 4.734375-3.855469 8.585938-8.585938 8.585938zm0 0" data-original="#000000" class="active-path" data-old_color="#000000" fill="#224f88"/><path d="m484.230469 0h-456.460938c-15.3125 0-27.769531 12.457031-27.769531 27.769531v334.265625c0 15.3125 12.457031 27.769532 27.769531 27.769532h48.859375c-2.320312 2.972656-2.117187 7.273437.617188 10.007812l36.390625 36.390625c-2.726563 5.59375-5.113281 11.355469-7.144531 17.222656h-51.457032c-4.179687 0-7.570312 3.390625-7.570312 7.574219v43.425781c0 4.183594 3.390625 7.574219 7.570312 7.574219h149.460938c4.183594 0 7.574218-3.390625 7.574218-7.574219 0-23.109375 18.800782-41.910156 41.910157-41.910156 23.105469 0 41.90625 18.800781 41.90625 41.910156 0 4.183594 3.390625 7.574219 7.574219 7.574219h149.460937c4.183594 0 7.574219-3.390625 7.574219-7.574219v-43.425781c0-4.183594-3.390625-7.574219-7.574219-7.574219h-51.457031c-2.03125-5.867187-4.417969-11.628906-7.144532-17.222656l36.394532-36.390625c2.730468-2.734375 2.933594-7.035156.613281-10.007812h52.898437c15.3125 0 27.769532-12.457032 27.769532-27.769532v-187.371094c0-4.183593-3.390625-7.574218-7.570313-7.574218-4.183593 0-7.574219 3.390625-7.574219 7.574218v187.371094c0 6.960938-5.664062 12.621094-12.625 12.621094h-67.957031l-44.640625-44.640625v-51.800781c0-4.183594-3.394531-7.574219-7.574218-7.574219h-13.632813v-46.671875l10.6875-9.867188c2.148437-1.984374 2.964844-5.023437 2.097656-7.8125l-18.175781-58.570312c-.984375-3.167969-3.917969-5.328125-7.234375-5.328125h-20.199219c-3.316406 0-6.25 2.160156-7.234375 5.328125l-18.175781 58.570312c-.867188 2.789063-.050781 5.828126 2.097656 7.8125l10.691406 9.867188v46.671875h-13.632812c-4.183594 0-7.574219 3.390625-7.574219 7.574219v19.691406h-59.582031v-11.503906l29.085938-29.085938c1.421874-1.421875 2.21875-3.347656 2.21875-5.355468v-62.109376c0-2.023437-.8125-3.964843-2.253907-5.386718l-40.390625-39.890625c-2.175781-2.148438-5.425781-2.777344-8.242187-1.601563-2.820313 1.179688-4.65625 3.933594-4.65625 6.988282v67.519531l-19.691407 12.398437-19.691406-12.398437v-4.316407c0-4.183593-3.390625-7.574218-7.574218-7.574218-4.183594 0-7.574219 3.390625-7.574219 7.574218v8.496094c0 2.605469 1.335937 5.023438 3.539062 6.410156l27.265625 17.167969c2.464844 1.554688 5.605469 1.554688 8.070313 0l27.265625-17.167969c2.203125-1.386718 3.539062-3.804687 3.539062-6.410156v-53.574218l25.246094 24.929687v55.804687l-29.085938 29.085938c-1.421874 1.421875-2.21875 3.347656-2.21875 5.359375v14.792969c-3.457031.703125-6.058593 3.757812-6.058593 7.421875v51.457031c-5.871094 2.027344-11.628907 4.417969-17.226563 7.140625l-34.277344-34.277344v-46.535156c0-2.011719-.796874-3.9375-2.21875-5.359375l-29.085937-29.085938v-55.804687l25.246094-24.929687v9.605468c0 4.183594 3.390625 7.574219 7.574219 7.574219 4.183593 0 7.574218-3.390625 7.574218-7.574219v-27.726562c0-3.058594-1.835937-5.8125-4.65625-6.988282-2.816406-1.179687-6.066406-.546874-8.242187 1.597657l-40.394531 39.890625c-1.441407 1.421875-2.25 3.363281-2.25 5.386718v62.109376c0 2.007812.796874 3.933593 2.21875 5.355468l29.085937 29.085938v43.613281l-44.640625 44.640625h-63.917969c-6.960937 0-12.621093-5.660156-12.621093-12.621094v-251.960937h481.703124v29.304687c0 4.179688 3.390626 7.570313 7.574219 7.570313 4.183594 0 7.574219-3.390625 7.574219-7.570313v-111.609375c0-15.3125-12.457031-27.769531-27.769531-27.769531zm-166.542969 215.089844-9.613281-8.875 15.109375-48.675782h9.035156l15.105469 48.675782-9.613281 8.875c-1.550782 1.433594-2.4375 3.449218-2.4375 5.566406v49.988281h-15.144532v-49.988281c-.003906-2.117188-.886718-4.132812-2.441406-5.566406zm38.792969 70.699218v44.015626l-34.277344 34.277343c-5.597656-2.722656-11.355469-5.113281-17.226563-7.144531v-51.453125c0-3.664063-2.601562-6.71875-6.058593-7.421875v-12.269531h57.5625zm-168.625 94.222657c7.949219-4.234375 16.332031-7.710938 24.914062-10.332031 3.183594-.972657 5.359375-3.914063 5.359375-7.246094v-49.378906h71.699219v49.378906c0 3.332031 2.179687 6.273437 5.363281 7.246094 8.582032 2.621093 16.964844 6.097656 24.914063 10.332031 2.941406 1.566406 6.558593 1.027343 8.917969-1.328125l34.925781-34.925782 43.824219 43.828126c.003906 0 .003906.003906.007812.007812l6.867188 6.863281-34.925782 34.925781c-2.355468 2.355469-2.894531 5.976563-1.328125 8.917969 4.234375 7.945313 7.710938 16.328125 10.332031 24.914063.972657 3.183594 3.914063 5.359375 7.242188 5.359375h49.378906v28.277343h-77.003906c-3.914062-59.683593-53.707031-107.042968-114.363281-107.042968-16.21875 0-31.894531 3.320312-46.597657 9.867187-3.820312 1.703125-5.539062 6.179688-3.835937 10.003907 1.699219 3.820312 6.183594 5.535156 10 3.835937 12.75-5.679687 26.351563-8.558594 40.433594-8.558594 52.300781 0 95.304687 40.570313 99.183593 91.894531h-42.628906c-3.714844-27.890624-27.660156-49.480468-56.554687-49.480468s-52.839844 21.589844-56.554688 49.480468h-42.636719c1.839844-24.871093 12.742188-47.722656 31.164063-65 3.050781-2.859374 3.207031-7.652343.34375-10.707031-2.859375-3.046875-7.652344-3.203125-10.703125-.34375-21.179688 19.859375-34.039062 47.238281-35.96875 76.050781h-77.015625v-28.277343h49.378906c3.332031 0 6.273438-2.175781 7.246094-5.359375 2.621094-8.585938 6.097656-16.96875 10.332031-24.914063 1.566406-2.941406 1.027344-6.5625-1.328125-8.917969l-34.925781-34.925781 6.867188-6.863281c0-.003906.003906-.007812.007812-.007812l43.824219-43.828126 34.925781 34.925782c2.355469 2.355468 5.976562 2.894531 8.917969 1.328125zm-172.707031-285.085938v-67.15625c0-6.960937 5.664062-12.621093 12.621093-12.621093h456.460938c6.960937 0 12.621093 5.664062 12.621093 12.621093v67.15625zm0 0" data-original="#000000" class="active-path" data-old_color="#000000" fill="#224f88"/></g> </svg>
